<svg id="a60d01ac-1f9e-4647-9c5e-561bbf8fe2df" data-name="Capa 1" xmlns="http://www.w3.org/2000/svg" xmlns:xlink="http://www.w3.org/1999/xlink" viewBox="0 0 3240.16 2305.21"><defs><linearGradient id="f892c81f-d579-4789-bd18-09b2ac5e53e6" x1="540.08" y1="1460.66" x2="540.08" y2="1613.13" gradientUnits="userSpaceOnUse"><stop offset="0" stop-color="#ffe3d1"/><stop offset="0.17" stop-color="#eeecdf"/><stop offset="0.43" stop-color="#dcf7ef"/><stop offset="0.71" stop-color="#d1fdf9"/><stop offset="1" stop-color="#cdfffc"/></linearGradient><linearGradient id="ae9a5c85-af7f-40cc-92a1-f75e70b04460" x1="2160.08" y1="1920.81" x2="2053.94" y2="1920.81" gradientUnits="userSpaceOnUse"><stop offset="0" stop-color="#c4ffe5"/><stop offset="1" stop-color="#dbfffd" stop-opacity="0"/></linearGradient><linearGradient id="fdfc83fc-d1af-41c1-af45-336ce7d416bb" x1="1619.76" y1="735.23" x2="1619.76" y2="803.18" gradientUnits="userSpaceOnUse"><stop offset="0" stop-color="#fff0cd"/><stop offset="1" stop-color="#d6ffed"/></linearGradient></defs><rect x="0.12" y="1.21" width="1080" height="1536" style="fill:#fff6f0"/><rect x="0.12" y="1537.21" width="2160" height="768" style="fill:#cdfffc"/><path d="M.11,1920.09l363.67-111.18a898.27,898.27,0,0,1,590.32,22.65l1206,472.44-2160,.49Z" transform="translate(0.01 0.71)" style="fill:#dbfffd"/><polygon points="0.12 2305.21 2159.88 1816.3 2160.12 2304.22 0.12 2305.21" style="fill:#e6fffd"/><path d="M1008.82,2096.89,2160.07,2304l-2160,.49,452-161.5A1084.1,1084.1,0,0,1,1008.82,2096.89Z" transform="translate(0.01 0.71)" style="fill:#edfffe"/><rect x="633.24" y="1.21" width="64.94" height="1459.46" style="fill:#fff3ec"/><rect x="107.36" y="1.21" width="32.47" height="1459.46" style="fill:#fff3ec"/><rect x="763.12" y="1.21" width="34.45" height="1459.46" style="fill:#fff3ec"/><rect x="436.9" y="1.21" width="34.45" height="1459.46" style="fill:#fff3ec"/><rect x="1080.04" width="2160" height="768" style="fill:#ffefe6"/><polygon points="633.24 1460.13 432.07 1460.13 489.24 1205.71 504.08 0.68 554.08 0.68 595.13 1320.07 633.24 1460.13" style="fill:#ffede1"/><polygon points="1049.71 1460.66 933.92 1460.66 964.13 1.21 1023.53 1.21 1049.71 1460.66" style="fill:#ffede1"/><polygon points="247.86 1460.66 150.39 1460.66 175.82 1.21 225.82 1.21 247.86 1460.66" style="fill:#ffede1"/><polygon points="1080.12 769.21 1080.12 1537.21 2160.12 1537.21 2160.12 2305.21 3239.8 2305.21 3240.12 769.21 1080.12 769.21" style="fill:#f4fff2"/><rect y="1460.66" width="1080.16" height="152.47" style="fill:url(#f892c81f-d579-4789-bd18-09b2ac5e53e6)"/><rect x="2053.94" y="1536.9" width="106.14" height="767.82" style="fill:url(#ae9a5c85-af7f-40cc-92a1-f75e70b04460)"/><path d="M.11,1315.12l521.47-45.42a820.69,820.69,0,0,1,266.52,20.47l292.05,71.54V1460H1.05Z" transform="translate(0.01 0.71)" style="fill:#ffede1"/><path d="M145.12,1460H1.05L41.91-.57h63.43L82.68,512.51A3047.54,3047.54,0,0,0,94.42,946Z" transform="translate(0.01 0.71)" style="fill:#ffe3d1"/><polygon points="442.65 1460.66 199.13 1460.66 262.65 1.21 387.6 1.21 442.65 1460.66" style="fill:#ffe3d1"/><polygon points="982.65 1460.66 677.71 1460.66 773.01 1281.95 802.65 1.21 927.6 1.21 982.65 1460.66" style="fill:#ffe3d1"/><polygon points="0.12 1315.83 364.3 1349.71 771.95 1391.01 1080.16 1378.3 1080.16 1460.66 1.06 1460.66 0.12 1315.83" style="fill:#ffe3d1"/><path d="M1079.64,1286l819.53-82.63a3433.6,3433.6,0,0,1,783.26,10.82L3240,1286l.11,249.38-2160,.32Z" transform="translate(0.01 0.71)" style="fill:#e6fff0"/><path d="M2922.9,1333.27A1418.24,1418.24,0,0,0,2581.51,1299l36.81-259.19a399.21,399.21,0,0,0,337.37-145.73L3060.1,766.21,2141,770l-959.12-1.4H1080.07l.12,273.6,18,21.53a82.52,82.52,0,0,1,14,81.54l-32,86.46v306.08l2160-.31V1404.65Zm-1761.4-102,52.63-76.58a82.57,82.57,0,0,1,56.48-35l16.6-2.34a284.74,284.74,0,0,0,191.39-115.76,587,587,0,0,0,124.56,29.61c72.7,9.07,139.43,15.8,168.93,19.72l4.1,319.55h0l-569.31-44.22C1160.21,1322.63,1135,1269.82,1161.5,1231.25ZM2340,1324.94l-327.45,63.89-82.77-6.43-63.24-326.64A584,584,0,0,0,2105,997L2255,924a358,358,0,0,0,210.22,99.23l9.74,1.08,43,277.52A1416.11,1416.11,0,0,0,2340,1324.94Z" transform="translate(0.01 0.71)" style="fill:#d6ffed"/><path d="M2160.11,1535.69l758.88-150a403.07,403.07,0,0,1,321.16,73.81h0l-.32,844.54-1079.72-.49Z" transform="translate(0.01 0.71)" style="fill:#c4ffe5"/><path d="M2396.41,2303.81h0a799.16,799.16,0,0,1,673-368.22H3240v368.9Z" transform="translate(0.01 0.71)" style="fill:#b9f7dc"/><path d="M2307,425.06l267.82-22.52A426.35,426.35,0,0,1,2678,406.41l123.84,19.84a426.75,426.75,0,0,0,159.71-4.71h0a426.76,426.76,0,0,1,209.47,6.34L3240,447.59l.11,320.9L2307,766.21Z" transform="translate(0.01 0.71)" style="fill:#d0fffc"/><path d="M1079.64,307.12l883.14,19.54a706.16,706.16,0,0,1,460.73,184.72h0a706.07,706.07,0,0,0,466.68,184.83L3240,701l.11,67.49H1079.64Z" transform="translate(0.01 0.71)" style="fill:#fff0cd"/><rect x="1079.64" y="735.23" width="1080.24" height="67.95" style="fill:url(#fdfc83fc-d1af-41c1-af45-336ce7d416bb)"/></svg>